<svg xmlns="http://www.w3.org/2000/svg" viewBox="0 0 24 24" width="100%" height="100%" fill="#25D366">
    <path d="M12.01 2.01c-5.46 0-9.91 4.45-9.91 9.91 0 1.76.46 3.45 1.34 4.96l-1.39 5.09 5.2-1.37c1.46.84 3.12 1.28 4.76 1.28 5.46 0 9.91-4.45 9.91-9.91 0-5.46-4.45-9.91-9.91-9.91zm0 18.04c-1.5 0-2.98-.4-4.28-1.15l-.31-.18-3.18.84.85-3.1-.2-.32c-.82-1.32-1.25-2.85-1.25-4.43 0-4.56 3.71-8.27 8.27-8.27 4.56 0 8.27 3.71 8.27 8.27 0 4.56-3.71 8.27-8.27 8.27z"/>
    <path d="M15 10v-.5c0-.83-.67-1.5-1.5-1.5h-3c-.83 0-1.5.67-1.5 1.5v.5H8v6h8v-6h-1zm-3.5 2c-.55 0-1-.45-1-1s.45-1 1-1 1 .45 1 1-.45 1-1 1zm3 0c-.55 0-1-.45-1-1s.45-1 1-1 1 .45 1 1-.45 1-1 1z" fill="#000000"/>
</svg>
